<svg id="visual" viewBox="0 0 540 960" width="540" height="960" xmlns="http://www.w3.org/2000/svg" xmlns:xlink="http://www.w3.org/1999/xlink" version="1.1"><path d="M0 164L39 164L39 260L77 260L77 174L116 174L116 231L154 231L154 126L193 126L193 279L231 279L231 356L270 356L270 337L309 337L309 193L347 193L347 222L386 222L386 251L424 251L424 174L463 174L463 366L501 366L501 289L540 289L540 433L540 0L540 0L501 0L501 0L463 0L463 0L424 0L424 0L386 0L386 0L347 0L347 0L309 0L309 0L270 0L270 0L231 0L231 0L193 0L193 0L154 0L154 0L116 0L116 0L77 0L77 0L39 0L39 0L0 0Z" fill="#231b40"></path><path d="M0 299L39 299L39 337L77 337L77 279L116 279L116 356L154 356L154 174L193 174L193 414L231 414L231 433L270 433L270 423L309 423L309 241L347 241L347 356L386 356L386 299L424 299L424 260L463 260L463 519L501 519L501 356L540 356L540 510L540 431L540 287L501 287L501 364L463 364L463 172L424 172L424 249L386 249L386 220L347 220L347 191L309 191L309 335L270 335L270 354L231 354L231 277L193 277L193 124L154 124L154 229L116 229L116 172L77 172L77 258L39 258L39 162L0 162Z" fill="#2e2459"></path><path d="M0 385L39 385L39 443L77 443L77 337L116 337L116 519L154 519L154 299L193 299L193 510L231 510L231 491L270 491L270 596L309 596L309 404L347 404L347 414L386 414L386 471L424 471L424 337L463 337L463 683L501 683L501 414L540 414L540 567L540 508L540 354L501 354L501 517L463 517L463 258L424 258L424 297L386 297L386 354L347 354L347 239L309 239L309 421L270 421L270 431L231 431L231 412L193 412L193 172L154 172L154 354L116 354L116 277L77 277L77 335L39 335L39 297L0 297Z" fill="#392c73"></path><path d="M0 558L39 558L39 577L77 577L77 539L116 539L116 692L154 692L154 529L193 529L193 625L231 625L231 740L270 740L270 683L309 683L309 500L347 500L347 500L386 500L386 548L424 548L424 587L463 587L463 769L501 769L501 606L540 606L540 721L540 565L540 412L501 412L501 681L463 681L463 335L424 335L424 469L386 469L386 412L347 412L347 402L309 402L309 594L270 594L270 489L231 489L231 508L193 508L193 297L154 297L154 517L116 517L116 335L77 335L77 441L39 441L39 383L0 383Z" fill="#43358e"></path><path d="M0 865L39 865L39 913L77 913L77 855L116 855L116 836L154 836L154 855L193 855L193 855L231 855L231 865L270 865L270 846L309 846L309 827L347 827L347 875L386 875L386 865L424 865L424 884L463 884L463 903L501 903L501 865L540 865L540 875L540 719L540 604L501 604L501 767L463 767L463 585L424 585L424 546L386 546L386 498L347 498L347 498L309 498L309 681L270 681L270 738L231 738L231 623L193 623L193 527L154 527L154 690L116 690L116 537L77 537L77 575L39 575L39 556L0 556Z" fill="#4e3fa9"></path><path d="M0 961L39 961L39 961L77 961L77 961L116 961L116 961L154 961L154 961L193 961L193 961L231 961L231 961L270 961L270 961L309 961L309 961L347 961L347 961L386 961L386 961L424 961L424 961L463 961L463 961L501 961L501 961L540 961L540 961L540 873L540 863L501 863L501 901L463 901L463 882L424 882L424 863L386 863L386 873L347 873L347 825L309 825L309 844L270 844L270 863L231 863L231 853L193 853L193 853L154 853L154 834L116 834L116 853L77 853L77 911L39 911L39 863L0 863Z" fill="#5948c6"></path></svg>