<svg id="visual" viewBox="0 0 960 540" width="960" height="540" xmlns="http://www.w3.org/2000/svg" xmlns:xlink="http://www.w3.org/1999/xlink" version="1.1"><path d="M0 93L69 93L69 147L137 147L137 98L206 98L206 131L274 131L274 71L343 71L343 158L411 158L411 201L480 201L480 190L549 190L549 109L617 109L617 125L686 125L686 141L754 141L754 98L823 98L823 206L891 206L891 163L960 163L960 244L960 0L960 0L891 0L891 0L823 0L823 0L754 0L754 0L686 0L686 0L617 0L617 0L549 0L549 0L480 0L480 0L411 0L411 0L343 0L343 0L274 0L274 0L206 0L206 0L137 0L137 0L69 0L69 0L0 0Z" fill="#231b40"></path><path d="M0 168L69 168L69 190L137 190L137 158L206 158L206 201L274 201L274 98L343 98L343 233L411 233L411 244L480 244L480 239L549 239L549 136L617 136L617 201L686 201L686 168L754 168L754 147L823 147L823 293L891 293L891 201L960 201L960 287L960 242L960 161L891 161L891 204L823 204L823 96L754 96L754 139L686 139L686 123L617 123L617 107L549 107L549 188L480 188L480 199L411 199L411 156L343 156L343 69L274 69L274 129L206 129L206 96L137 96L137 145L69 145L69 91L0 91Z" fill="#2e2459"></path><path d="M0 217L69 217L69 249L137 249L137 190L206 190L206 293L274 293L274 168L343 168L343 287L411 287L411 276L480 276L480 336L549 336L549 228L617 228L617 233L686 233L686 266L754 266L754 190L823 190L823 384L891 384L891 233L960 233L960 320L960 285L960 199L891 199L891 291L823 291L823 145L754 145L754 166L686 166L686 199L617 199L617 134L549 134L549 237L480 237L480 242L411 242L411 231L343 231L343 96L274 96L274 199L206 199L206 156L137 156L137 188L69 188L69 166L0 166Z" fill="#392c73"></path><path d="M0 314L69 314L69 325L137 325L137 303L206 303L206 390L274 390L274 298L343 298L343 352L411 352L411 417L480 417L480 384L549 384L549 282L617 282L617 282L686 282L686 309L754 309L754 330L823 330L823 433L891 433L891 341L960 341L960 406L960 318L960 231L891 231L891 382L823 382L823 188L754 188L754 264L686 264L686 231L617 231L617 226L549 226L549 334L480 334L480 274L411 274L411 285L343 285L343 166L274 166L274 291L206 291L206 188L137 188L137 247L69 247L69 215L0 215Z" fill="#43358e"></path><path d="M0 487L69 487L69 514L137 514L137 482L206 482L206 471L274 471L274 482L343 482L343 482L411 482L411 487L480 487L480 476L549 476L549 465L617 465L617 492L686 492L686 487L754 487L754 498L823 498L823 509L891 509L891 487L960 487L960 492L960 404L960 339L891 339L891 431L823 431L823 328L754 328L754 307L686 307L686 280L617 280L617 280L549 280L549 382L480 382L480 415L411 415L411 350L343 350L343 296L274 296L274 388L206 388L206 301L137 301L137 323L69 323L69 312L0 312Z" fill="#4e3fa9"></path><path d="M0 541L69 541L69 541L137 541L137 541L206 541L206 541L274 541L274 541L343 541L343 541L411 541L411 541L480 541L480 541L549 541L549 541L617 541L617 541L686 541L686 541L754 541L754 541L823 541L823 541L891 541L891 541L960 541L960 541L960 490L960 485L891 485L891 507L823 507L823 496L754 496L754 485L686 485L686 490L617 490L617 463L549 463L549 474L480 474L480 485L411 485L411 480L343 480L343 480L274 480L274 469L206 469L206 480L137 480L137 512L69 512L69 485L0 485Z" fill="#5948c6"></path></svg>